 
http://desibbrg.org/images/66952052392581364616.gif
 
http://desibbrg.org/images/60481437815190093293.jpg
 
http://desibbrg.org/images/56119874706607993986.jpg


Media Info - 
General
Complete name                    : /Daal Mai Kuch Kala Hai (2012) Cam Rip - Team IcTv.mpg
Format                           : MPEG-PS
File size                        : 678 MiB
Duration                         : 1h 55mn
Overall bit rate                 : 823 Kbps
Writing library                  : encoded by TMPGEnc Video Mastering Works 5 Version. 5.0.5.32

Video
ID                               : 224 (0xE0)
Format                           : MPEG Video
Format version                   : Version 1
Format settings, BVOP            : Yes
Format settings, Matrix          : Default
Duration                         : 1h 55mn
Bit rate mode                    : Variable
Bit rate                         : 746 Kbps
Width                            : 352 pixels
Height                           : 288 pixels
Display aspect ratio             : 4:3
Frame rate                       : 25.000 fps
Standard                         : PAL
Color space                      : YUV
Bit depth                        : 8 bits
Scan type                        : Progressive
Compression mode                 : Lossy
Bits/(Pixel*Frame)               : 0.295
Stream size                      : 612 MiB (90%)
Writing library                  : TMPGEnc Video Mastering Works 5 Version. 5.0.5.32

Audio
ID                               : 192 (0xC0)
Format                           : MPEG Audio
Format version                   : Version 1
Format profile                   : Layer 2
Duration                         : 1h 55mn
Bit rate mode                    : Constant
Bit rate                         : 64.0 Kbps
Channel(s)                       : 2 channels
Sampling rate                    : 48.0 KHz
Compression mode                 : Lossy
Stream size                      : 52.8 MiB (8%)

Ripper : Pokar

Seeding 24x7... Extreme Seeding...


Enjoy!
